<?xml version="1.0" encoding="utf-8"?>
<!-- Generator: Adobe Illustrator 25.0.1, SVG Export Plug-In . SVG Version: 6.00 Build 0)  -->
<svg version="1.1" id="Layer_1" xmlns="http://www.w3.org/2000/svg" xmlns:xlink="http://www.w3.org/1999/xlink" x="0px" y="0px"
	 viewBox="0 0 158 210" style="enable-background:new 0 0 158 210;" xml:space="preserve">
<style type="text/css">
	.st0{fill:#333333;}
	.st1{fill:#CCCCCB;}
</style>
<rect class="st0" width="158" height="210"/>
<g>
	<path class="st1" d="M70.2,107c0-7.6,4.2-12.6,12-18.5c1.7-1.3,3.3-3.8,3.3-6.4c0-4.9-3.5-7.4-8.9-7.4c-5.2,0-10,2.6-11.7,6.9
		l-4.8-10.6c1.3-2.5,5.6-9.3,17.3-9.3c12.2,0,20.4,9.7,20.4,18c0,6.4-1.6,10.5-5.6,14.5c-4.2,4.3-9.4,4.9-9.4,12.2
		c0,0.6,0,1.2,0.1,1.9l-12.8,0V107z M68.1,124.9c0-4.7,3.9-8.5,8.6-8.5c4.8,0,8.7,4,8.7,8.7c0,4.7-3.9,8.4-8.7,8.4
		C71.9,133.5,68.1,129.6,68.1,124.9z"/>
</g>
</svg>
