<?xml version="1.0" encoding="utf-8"?>
<!-- Generator: Adobe Illustrator 25.0.1, SVG Export Plug-In . SVG Version: 6.00 Build 0)  -->
<svg version="1.1" id="Layer_1" xmlns="http://www.w3.org/2000/svg" xmlns:xlink="http://www.w3.org/1999/xlink" x="0px" y="0px"
	 viewBox="0 0 3000 3000" style="enable-background:new 0 0 3000 3000;" xml:space="preserve">
<style type="text/css">
	.st0{fill:#CCCCCC;}
	.st1{fill:#333333;}
</style>
<g>
	<rect x="0.5" y="0.5" class="st0" width="2999" height="2999"/>
	<path d="M2999,1v2998H1V1H2999 M3000,0H0v3000h3000V0L3000,0z"/>
</g>
<g>
	<rect x="100.5" y="100.5" class="st1" width="2799" height="2799"/>
	<path d="M2899,101v2798H101V101H2899 M2900,100H100v2800h2800V100L2900,100z"/>
</g>
<g>
	<rect x="200.5" y="200.5" class="st0" width="2599" height="2599"/>
	<path d="M2799,201v2598H201V201H2799 M2800,200H200v2600h2600V200L2800,200z"/>
</g>
<g>
	<path class="st1" d="M554.5,466.4H334.6V339.5h590v127.9h-218v562.9H554.5V466.4z"/>
	<path class="st1" d="M1672.4,1030.2h-151.1l-117.2-470.8h-1.9l-115.3,470.8h-154L949.7,338.5h152.1l97.8,472.8l13.6-1.9
		l120.1-470.8h142.4L1594,815.2l13.6,1l101.7-477.6h149.2L1672.4,1030.2z"/>
	<path class="st1" d="M2238.2,1039c-197.6,0-357.5-159.8-357.5-357.5c0-198.6,159.8-358.4,357.5-358.4
		c196.7,0,358.4,159.8,358.4,358.4C2596.6,879.1,2434.8,1039,2238.2,1039z M2027,681.5c0,115.3,95.9,211.2,211.2,211.2
		s209.3-95.9,209.3-211.2c0-115.3-94-212.2-209.3-212.2S2027,566.2,2027,681.5z"/>
	<path class="st1" d="M508.9,1736.9v128.8H361.7v-694.6h504.7V1299H508.9v156h315.8v134.7H508.9V1736.9z"/>
	<path class="st1" d="M955.5,1174h152.1v691.7H955.5V1174z"/>
	<path class="st1" d="M1558.1,1865.7h-171.5L1161.9,1174h156.9l154,486.3h1.9l156-486.3h156.9L1558.1,1865.7z"/>
	<path class="st1" d="M1978.5,1589.6v147.3H2369v127.9h-537.7v-693.6H2336V1299h-357.5v156h315.8v134.7H1978.5z"/>
	<path class="st1" d="M687.2,2709.9c-197.6,0-357.5-159.8-357.5-357.5c0-198.6,159.8-358.4,357.5-358.4
		c196.7,0,358.4,159.8,358.4,358.4C1045.6,2550.1,883.9,2709.9,687.2,2709.9z M476,2352.4c0,115.3,95.9,211.2,211.2,211.2
		s209.3-95.9,209.3-211.2c0-115.3-94-212.2-209.3-212.2S476,2237.1,476,2352.4z"/>
	<path class="st1" d="M1590.1,2404.7h-320.7v294.5h-148.2v-693.6h148.2v250.9h320.7v-249h149.2v691.7h-149.2V2404.7z"/>
</g>
</svg>
